<mxfile host="app.diagrams.net" modified="2023-10-20T19:47:46.641Z" agent="Mozilla/5.0 (Windows NT 10.0; Win64; x64) AppleWebKit/537.36 (KHTML, like Gecko) Chrome/111.0.0.0 Safari/537.36" etag="UtrNv-_ZMfuQtbs-9WfJ" version="22.0.6" type="github">
  <diagram name="Страница — 1" id="du0m9YBA0GtFJIi-RXgu">
    <mxGraphModel dx="1687" dy="2068" grid="1" gridSize="10" guides="1" tooltips="1" connect="1" arrows="1" fold="1" page="1" pageScale="1" pageWidth="827" pageHeight="1169" math="0" shadow="0">
      <root>
        <mxCell id="0" />
        <mxCell id="1" parent="0" />
        <mxCell id="NoFUeBLDmQUnT1oaygsK-64" value="" style="rounded=0;whiteSpace=wrap;html=1;" vertex="1" parent="1">
          <mxGeometry x="1580" y="-270" width="1150" height="840" as="geometry" />
        </mxCell>
        <mxCell id="NoFUeBLDmQUnT1oaygsK-24" value="" style="rounded=0;whiteSpace=wrap;html=1;container=0;" vertex="1" parent="1">
          <mxGeometry x="80" y="-270" width="1350" height="840" as="geometry" />
        </mxCell>
        <mxCell id="NoFUeBLDmQUnT1oaygsK-25" value="&lt;div style=&quot;font-size: 24px;&quot;&gt;Представте систему соціальної мережі і створіть ER-діаграму&lt;/div&gt;&lt;div style=&quot;font-size: 24px;&quot;&gt;Сутності: Користувач, Повідомлення, Група, Друзі.&lt;/div&gt;" style="text;html=1;align=center;verticalAlign=middle;resizable=0;points=[];autosize=1;strokeColor=none;fillColor=none;fontSize=24;container=0;" vertex="1" parent="1">
          <mxGeometry x="400" y="-250" width="710" height="70" as="geometry" />
        </mxCell>
        <mxCell id="NoFUeBLDmQUnT1oaygsK-19" style="edgeStyle=orthogonalEdgeStyle;rounded=0;orthogonalLoop=1;jettySize=auto;html=1;endArrow=none;endFill=0;curved=1;strokeWidth=4;" edge="1" parent="1" source="NoFUeBLDmQUnT1oaygsK-1">
          <mxGeometry relative="1" as="geometry">
            <mxPoint x="200" y="440" as="targetPoint" />
          </mxGeometry>
        </mxCell>
        <mxCell id="NoFUeBLDmQUnT1oaygsK-1" value="&lt;font style=&quot;font-size: 24px;&quot;&gt;Користувач&lt;/font&gt;" style="rounded=0;whiteSpace=wrap;html=1;strokeColor=default;container=0;" vertex="1" parent="1">
          <mxGeometry x="120" y="120" width="160" height="90" as="geometry" />
        </mxCell>
        <mxCell id="NoFUeBLDmQUnT1oaygsK-2" value="Повідомлення" style="rounded=0;whiteSpace=wrap;html=1;fontSize=22;strokeColor=default;container=0;" vertex="1" parent="1">
          <mxGeometry x="680" y="120" width="160" height="90" as="geometry" />
        </mxCell>
        <mxCell id="NoFUeBLDmQUnT1oaygsK-4" value="Група" style="rounded=0;whiteSpace=wrap;html=1;fontSize=24;strokeColor=default;container=0;" vertex="1" parent="1">
          <mxGeometry x="1241" y="120" width="160" height="90" as="geometry" />
        </mxCell>
        <mxCell id="NoFUeBLDmQUnT1oaygsK-5" value="Друзі" style="rounded=0;whiteSpace=wrap;html=1;fontSize=24;strokeColor=default;container=0;" vertex="1" parent="1">
          <mxGeometry x="680" y="441" width="160" height="90" as="geometry" />
        </mxCell>
        <mxCell id="NoFUeBLDmQUnT1oaygsK-14" style="edgeStyle=orthogonalEdgeStyle;rounded=0;orthogonalLoop=1;jettySize=auto;html=1;entryX=0;entryY=0.5;entryDx=0;entryDy=0;endArrow=none;endFill=0;curved=1;strokeWidth=4;" edge="1" parent="1" source="NoFUeBLDmQUnT1oaygsK-6" target="NoFUeBLDmQUnT1oaygsK-2">
          <mxGeometry relative="1" as="geometry" />
        </mxCell>
        <mxCell id="NoFUeBLDmQUnT1oaygsK-6" value="надсилає і отримує" style="rhombus;whiteSpace=wrap;html=1;fontSize=18;strokeColor=default;container=0;" vertex="1" parent="1">
          <mxGeometry x="400" y="120" width="160" height="90" as="geometry" />
        </mxCell>
        <mxCell id="NoFUeBLDmQUnT1oaygsK-22" style="edgeStyle=orthogonalEdgeStyle;rounded=0;orthogonalLoop=1;jettySize=auto;html=1;entryX=0;entryY=0.5;entryDx=0;entryDy=0;strokeWidth=4;startArrow=none;startFill=0;curved=1;endArrow=none;endFill=0;" edge="1" parent="1" source="NoFUeBLDmQUnT1oaygsK-1" target="NoFUeBLDmQUnT1oaygsK-6">
          <mxGeometry relative="1" as="geometry" />
        </mxCell>
        <mxCell id="NoFUeBLDmQUnT1oaygsK-20" style="edgeStyle=orthogonalEdgeStyle;rounded=0;orthogonalLoop=1;jettySize=auto;html=1;entryX=0;entryY=0.5;entryDx=0;entryDy=0;endArrow=none;endFill=0;curved=1;strokeWidth=4;" edge="1" parent="1" source="NoFUeBLDmQUnT1oaygsK-8" target="NoFUeBLDmQUnT1oaygsK-5">
          <mxGeometry relative="1" as="geometry" />
        </mxCell>
        <mxCell id="NoFUeBLDmQUnT1oaygsK-8" value="Взаємодіять" style="rhombus;whiteSpace=wrap;html=1;fontSize=20;strokeColor=default;container=0;" vertex="1" parent="1">
          <mxGeometry x="120" y="441" width="160" height="90" as="geometry" />
        </mxCell>
        <mxCell id="NoFUeBLDmQUnT1oaygsK-13" style="edgeStyle=orthogonalEdgeStyle;rounded=0;orthogonalLoop=1;jettySize=auto;html=1;endArrow=none;endFill=0;curved=1;strokeWidth=4;" edge="1" parent="1" source="NoFUeBLDmQUnT1oaygsK-9" target="NoFUeBLDmQUnT1oaygsK-4">
          <mxGeometry relative="1" as="geometry" />
        </mxCell>
        <mxCell id="NoFUeBLDmQUnT1oaygsK-9" value="Належить до" style="rhombus;whiteSpace=wrap;html=1;fontSize=19;strokeColor=default;container=0;" vertex="1" parent="1">
          <mxGeometry x="680" y="-90" width="160" height="90" as="geometry" />
        </mxCell>
        <mxCell id="NoFUeBLDmQUnT1oaygsK-12" style="edgeStyle=orthogonalEdgeStyle;rounded=0;orthogonalLoop=1;jettySize=auto;html=1;entryX=0;entryY=0.5;entryDx=0;entryDy=0;endArrow=none;endFill=0;curved=1;strokeWidth=4;exitX=0.5;exitY=0;exitDx=0;exitDy=0;" edge="1" parent="1" source="NoFUeBLDmQUnT1oaygsK-1" target="NoFUeBLDmQUnT1oaygsK-9">
          <mxGeometry relative="1" as="geometry" />
        </mxCell>
        <mxCell id="NoFUeBLDmQUnT1oaygsK-18" style="edgeStyle=orthogonalEdgeStyle;rounded=0;orthogonalLoop=1;jettySize=auto;html=1;entryX=0.5;entryY=0;entryDx=0;entryDy=0;endArrow=none;endFill=0;curved=1;strokeWidth=4;" edge="1" parent="1" source="NoFUeBLDmQUnT1oaygsK-10" target="NoFUeBLDmQUnT1oaygsK-5">
          <mxGeometry relative="1" as="geometry" />
        </mxCell>
        <mxCell id="NoFUeBLDmQUnT1oaygsK-10" value="надсилає і отримує" style="rhombus;whiteSpace=wrap;html=1;fontSize=19;strokeColor=default;container=0;" vertex="1" parent="1">
          <mxGeometry x="680" y="280" width="160" height="90" as="geometry" />
        </mxCell>
        <mxCell id="NoFUeBLDmQUnT1oaygsK-17" style="edgeStyle=orthogonalEdgeStyle;rounded=0;orthogonalLoop=1;jettySize=auto;html=1;entryX=0.5;entryY=0;entryDx=0;entryDy=0;endArrow=none;endFill=0;curved=1;strokeWidth=4;" edge="1" parent="1" source="NoFUeBLDmQUnT1oaygsK-2" target="NoFUeBLDmQUnT1oaygsK-10">
          <mxGeometry relative="1" as="geometry" />
        </mxCell>
        <mxCell id="NoFUeBLDmQUnT1oaygsK-16" style="edgeStyle=orthogonalEdgeStyle;rounded=0;orthogonalLoop=1;jettySize=auto;html=1;entryX=0;entryY=0.5;entryDx=0;entryDy=0;endArrow=none;endFill=0;curved=1;strokeWidth=4;" edge="1" parent="1" source="NoFUeBLDmQUnT1oaygsK-11" target="NoFUeBLDmQUnT1oaygsK-4">
          <mxGeometry relative="1" as="geometry" />
        </mxCell>
        <mxCell id="NoFUeBLDmQUnT1oaygsK-11" value="надсилає і отримує" style="rhombus;whiteSpace=wrap;html=1;fontSize=19;strokeColor=default;container=0;" vertex="1" parent="1">
          <mxGeometry x="960" y="120" width="160" height="90" as="geometry" />
        </mxCell>
        <mxCell id="NoFUeBLDmQUnT1oaygsK-15" style="edgeStyle=orthogonalEdgeStyle;rounded=0;orthogonalLoop=1;jettySize=auto;html=1;entryX=0;entryY=0.5;entryDx=0;entryDy=0;endArrow=none;endFill=0;curved=1;strokeWidth=4;" edge="1" parent="1" source="NoFUeBLDmQUnT1oaygsK-2" target="NoFUeBLDmQUnT1oaygsK-11">
          <mxGeometry relative="1" as="geometry" />
        </mxCell>
        <mxCell id="NoFUeBLDmQUnT1oaygsK-48" style="edgeStyle=orthogonalEdgeStyle;rounded=0;orthogonalLoop=1;jettySize=auto;html=1;entryX=0.5;entryY=0;entryDx=0;entryDy=0;exitX=0;exitY=0.5;exitDx=0;exitDy=0;endArrow=none;endFill=0;curved=1;strokeWidth=4;" edge="1" parent="1" source="NoFUeBLDmQUnT1oaygsK-28" target="NoFUeBLDmQUnT1oaygsK-30">
          <mxGeometry relative="1" as="geometry" />
        </mxCell>
        <mxCell id="NoFUeBLDmQUnT1oaygsK-28" value="&lt;span style=&quot;font-size: 24px;&quot;&gt;Замовник&lt;/span&gt;" style="rounded=0;whiteSpace=wrap;html=1;strokeColor=default;container=0;" vertex="1" parent="1">
          <mxGeometry x="1785" y="-49" width="160" height="90" as="geometry" />
        </mxCell>
        <mxCell id="NoFUeBLDmQUnT1oaygsK-52" style="edgeStyle=orthogonalEdgeStyle;rounded=0;orthogonalLoop=1;jettySize=auto;html=1;entryX=0.5;entryY=1;entryDx=0;entryDy=0;exitX=1;exitY=0.5;exitDx=0;exitDy=0;endArrow=none;endFill=0;curved=1;strokeWidth=4;" edge="1" parent="1" source="NoFUeBLDmQUnT1oaygsK-29" target="NoFUeBLDmQUnT1oaygsK-46">
          <mxGeometry relative="1" as="geometry" />
        </mxCell>
        <mxCell id="NoFUeBLDmQUnT1oaygsK-29" value="&lt;font style=&quot;font-size: 24px;&quot;&gt;Ресторан&lt;/font&gt;" style="rounded=0;whiteSpace=wrap;html=1;strokeColor=default;container=0;" vertex="1" parent="1">
          <mxGeometry x="2346" y="331" width="160" height="90" as="geometry" />
        </mxCell>
        <mxCell id="NoFUeBLDmQUnT1oaygsK-49" style="edgeStyle=orthogonalEdgeStyle;rounded=0;orthogonalLoop=1;jettySize=auto;html=1;entryX=0;entryY=0.5;entryDx=0;entryDy=0;endArrow=none;endFill=0;curved=1;strokeWidth=4;" edge="1" parent="1" source="NoFUeBLDmQUnT1oaygsK-30" target="NoFUeBLDmQUnT1oaygsK-31">
          <mxGeometry relative="1" as="geometry" />
        </mxCell>
        <mxCell id="NoFUeBLDmQUnT1oaygsK-30" value="надсилає" style="rhombus;whiteSpace=wrap;html=1;fontSize=24;strokeColor=default;container=0;" vertex="1" parent="1">
          <mxGeometry x="1625" y="151" width="160" height="90" as="geometry" />
        </mxCell>
        <mxCell id="NoFUeBLDmQUnT1oaygsK-50" style="edgeStyle=orthogonalEdgeStyle;rounded=0;orthogonalLoop=1;jettySize=auto;html=1;entryX=0;entryY=0.5;entryDx=0;entryDy=0;exitX=0.5;exitY=1;exitDx=0;exitDy=0;endArrow=none;endFill=0;curved=1;strokeWidth=4;" edge="1" parent="1" source="NoFUeBLDmQUnT1oaygsK-31" target="NoFUeBLDmQUnT1oaygsK-45">
          <mxGeometry relative="1" as="geometry" />
        </mxCell>
        <mxCell id="NoFUeBLDmQUnT1oaygsK-31" value="&lt;font style=&quot;font-size: 24px;&quot;&gt;Замовлення&lt;/font&gt;" style="rounded=0;whiteSpace=wrap;html=1;strokeColor=default;container=0;" vertex="1" parent="1">
          <mxGeometry x="1785" y="331" width="160" height="90" as="geometry" />
        </mxCell>
        <mxCell id="NoFUeBLDmQUnT1oaygsK-54" style="edgeStyle=orthogonalEdgeStyle;rounded=0;orthogonalLoop=1;jettySize=auto;html=1;entryX=1;entryY=0.5;entryDx=0;entryDy=0;exitX=0.5;exitY=0;exitDx=0;exitDy=0;endArrow=none;endFill=0;curved=1;strokeWidth=4;" edge="1" parent="1" source="NoFUeBLDmQUnT1oaygsK-32" target="NoFUeBLDmQUnT1oaygsK-47">
          <mxGeometry relative="1" as="geometry" />
        </mxCell>
        <mxCell id="NoFUeBLDmQUnT1oaygsK-32" value="&lt;font style=&quot;font-size: 24px;&quot;&gt;Продукт&lt;/font&gt;" style="rounded=0;whiteSpace=wrap;html=1;strokeColor=default;container=0;" vertex="1" parent="1">
          <mxGeometry x="2346" y="-49" width="160" height="90" as="geometry" />
        </mxCell>
        <mxCell id="NoFUeBLDmQUnT1oaygsK-33" value="1" style="text;html=1;align=center;verticalAlign=middle;resizable=0;points=[];autosize=1;strokeColor=none;fillColor=none;fontSize=24;" vertex="1" parent="1">
          <mxGeometry x="215" y="75" width="40" height="40" as="geometry" />
        </mxCell>
        <mxCell id="NoFUeBLDmQUnT1oaygsK-34" value="N" style="text;html=1;align=center;verticalAlign=middle;resizable=0;points=[];autosize=1;strokeColor=none;fillColor=none;fontSize=24;" vertex="1" parent="1">
          <mxGeometry x="1260" y="75" width="40" height="40" as="geometry" />
        </mxCell>
        <mxCell id="NoFUeBLDmQUnT1oaygsK-36" value="1" style="text;html=1;align=center;verticalAlign=middle;resizable=0;points=[];autosize=1;strokeColor=none;fillColor=none;fontSize=24;" vertex="1" parent="1">
          <mxGeometry x="290" y="120" width="40" height="40" as="geometry" />
        </mxCell>
        <mxCell id="NoFUeBLDmQUnT1oaygsK-37" value="N" style="text;html=1;align=center;verticalAlign=middle;resizable=0;points=[];autosize=1;strokeColor=none;fillColor=none;fontSize=24;" vertex="1" parent="1">
          <mxGeometry x="630" y="120" width="40" height="40" as="geometry" />
        </mxCell>
        <mxCell id="NoFUeBLDmQUnT1oaygsK-38" value="1" style="text;html=1;align=center;verticalAlign=middle;resizable=0;points=[];autosize=1;strokeColor=none;fillColor=none;fontSize=24;" vertex="1" parent="1">
          <mxGeometry x="215" y="220" width="40" height="40" as="geometry" />
        </mxCell>
        <mxCell id="NoFUeBLDmQUnT1oaygsK-39" value="N" style="text;html=1;align=center;verticalAlign=middle;resizable=0;points=[];autosize=1;strokeColor=none;fillColor=none;fontSize=24;" vertex="1" parent="1">
          <mxGeometry x="630" y="441" width="40" height="40" as="geometry" />
        </mxCell>
        <mxCell id="NoFUeBLDmQUnT1oaygsK-41" value="N" style="text;html=1;align=center;verticalAlign=middle;resizable=0;points=[];autosize=1;strokeColor=none;fillColor=none;fontSize=24;" vertex="1" parent="1">
          <mxGeometry x="850" y="120" width="40" height="40" as="geometry" />
        </mxCell>
        <mxCell id="NoFUeBLDmQUnT1oaygsK-42" value="M" style="text;html=1;align=center;verticalAlign=middle;resizable=0;points=[];autosize=1;strokeColor=none;fillColor=none;fontSize=24;" vertex="1" parent="1">
          <mxGeometry x="1190" y="120" width="40" height="40" as="geometry" />
        </mxCell>
        <mxCell id="NoFUeBLDmQUnT1oaygsK-43" value="N" style="text;html=1;align=center;verticalAlign=middle;resizable=0;points=[];autosize=1;strokeColor=none;fillColor=none;fontSize=24;" vertex="1" parent="1">
          <mxGeometry x="770" y="220" width="40" height="40" as="geometry" />
        </mxCell>
        <mxCell id="NoFUeBLDmQUnT1oaygsK-44" value="M" style="text;html=1;align=center;verticalAlign=middle;resizable=0;points=[];autosize=1;strokeColor=none;fillColor=none;fontSize=24;" vertex="1" parent="1">
          <mxGeometry x="770" y="390" width="40" height="40" as="geometry" />
        </mxCell>
        <mxCell id="NoFUeBLDmQUnT1oaygsK-51" style="edgeStyle=orthogonalEdgeStyle;rounded=0;orthogonalLoop=1;jettySize=auto;html=1;entryX=0.5;entryY=1;entryDx=0;entryDy=0;endArrow=none;endFill=0;curved=1;strokeWidth=4;" edge="1" parent="1" source="NoFUeBLDmQUnT1oaygsK-45" target="NoFUeBLDmQUnT1oaygsK-29">
          <mxGeometry relative="1" as="geometry">
            <mxPoint x="2345" y="357" as="targetPoint" />
          </mxGeometry>
        </mxCell>
        <mxCell id="NoFUeBLDmQUnT1oaygsK-45" value="надходить" style="rhombus;whiteSpace=wrap;html=1;fontSize=24;strokeColor=default;container=0;" vertex="1" parent="1">
          <mxGeometry x="2055" y="440" width="160" height="90" as="geometry" />
        </mxCell>
        <mxCell id="NoFUeBLDmQUnT1oaygsK-53" style="edgeStyle=orthogonalEdgeStyle;rounded=0;orthogonalLoop=1;jettySize=auto;html=1;entryX=1;entryY=0.5;entryDx=0;entryDy=0;endArrow=none;endFill=0;curved=1;strokeWidth=4;" edge="1" parent="1" source="NoFUeBLDmQUnT1oaygsK-46" target="NoFUeBLDmQUnT1oaygsK-32">
          <mxGeometry relative="1" as="geometry" />
        </mxCell>
        <mxCell id="NoFUeBLDmQUnT1oaygsK-46" value="надсилає" style="rhombus;whiteSpace=wrap;html=1;fontSize=24;strokeColor=default;container=0;" vertex="1" parent="1">
          <mxGeometry x="2506" y="151" width="160" height="90" as="geometry" />
        </mxCell>
        <mxCell id="NoFUeBLDmQUnT1oaygsK-55" style="edgeStyle=orthogonalEdgeStyle;rounded=0;orthogonalLoop=1;jettySize=auto;html=1;entryX=0.5;entryY=0;entryDx=0;entryDy=0;endArrow=none;endFill=0;curved=1;strokeWidth=4;" edge="1" parent="1" source="NoFUeBLDmQUnT1oaygsK-47" target="NoFUeBLDmQUnT1oaygsK-28">
          <mxGeometry relative="1" as="geometry" />
        </mxCell>
        <mxCell id="NoFUeBLDmQUnT1oaygsK-47" value="надходить" style="rhombus;whiteSpace=wrap;html=1;fontSize=24;strokeColor=default;container=0;" vertex="1" parent="1">
          <mxGeometry x="2065" y="-144" width="160" height="90" as="geometry" />
        </mxCell>
        <mxCell id="NoFUeBLDmQUnT1oaygsK-56" value="1" style="text;html=1;align=center;verticalAlign=middle;resizable=0;points=[];autosize=1;strokeColor=none;fillColor=none;fontSize=24;" vertex="1" parent="1">
          <mxGeometry x="1735" y="-49" width="40" height="40" as="geometry" />
        </mxCell>
        <mxCell id="NoFUeBLDmQUnT1oaygsK-57" value="N" style="text;html=1;align=center;verticalAlign=middle;resizable=0;points=[];autosize=1;strokeColor=none;fillColor=none;fontSize=24;" vertex="1" parent="1">
          <mxGeometry x="1745" y="381" width="40" height="40" as="geometry" />
        </mxCell>
        <mxCell id="NoFUeBLDmQUnT1oaygsK-58" value="N" style="text;html=1;align=center;verticalAlign=middle;resizable=0;points=[];autosize=1;strokeColor=none;fillColor=none;fontSize=24;" vertex="1" parent="1">
          <mxGeometry x="1825" y="431" width="40" height="40" as="geometry" />
        </mxCell>
        <mxCell id="NoFUeBLDmQUnT1oaygsK-59" value="1" style="text;html=1;align=center;verticalAlign=middle;resizable=0;points=[];autosize=1;strokeColor=none;fillColor=none;fontSize=24;" vertex="1" parent="1">
          <mxGeometry x="2435" y="431" width="40" height="40" as="geometry" />
        </mxCell>
        <mxCell id="NoFUeBLDmQUnT1oaygsK-60" value="N" style="text;html=1;align=center;verticalAlign=middle;resizable=0;points=[];autosize=1;strokeColor=none;fillColor=none;fontSize=24;" vertex="1" parent="1">
          <mxGeometry x="2515" y="381" width="40" height="40" as="geometry" />
        </mxCell>
        <mxCell id="NoFUeBLDmQUnT1oaygsK-61" value="M" style="text;html=1;align=center;verticalAlign=middle;resizable=0;points=[];autosize=1;strokeColor=none;fillColor=none;fontSize=24;" vertex="1" parent="1">
          <mxGeometry x="2515" y="-49" width="40" height="40" as="geometry" />
        </mxCell>
        <mxCell id="NoFUeBLDmQUnT1oaygsK-62" value="N" style="text;html=1;align=center;verticalAlign=middle;resizable=0;points=[];autosize=1;strokeColor=none;fillColor=none;fontSize=24;" vertex="1" parent="1">
          <mxGeometry x="2425" y="-94" width="40" height="40" as="geometry" />
        </mxCell>
        <mxCell id="NoFUeBLDmQUnT1oaygsK-63" value="M" style="text;html=1;align=center;verticalAlign=middle;resizable=0;points=[];autosize=1;strokeColor=none;fillColor=none;fontSize=24;" vertex="1" parent="1">
          <mxGeometry x="1825" y="-94" width="40" height="40" as="geometry" />
        </mxCell>
        <mxCell id="NoFUeBLDmQUnT1oaygsK-65" value="&lt;div style=&quot;font-size: 24px;&quot;&gt;&lt;div&gt;Представте систему замовлення їжі (як, наприклад, Uber Eats) і створіть&lt;/div&gt;&lt;div&gt;ER-діаграму&lt;/div&gt;&lt;div&gt;Сутності: Замовник, Ресторан, Замовлення, Продукт.&lt;/div&gt;&lt;/div&gt;" style="text;html=1;align=center;verticalAlign=middle;resizable=0;points=[];autosize=1;strokeColor=none;fillColor=none;fontSize=24;container=0;" vertex="1" parent="1">
          <mxGeometry x="1730" y="-265" width="830" height="100" as="geometry" />
        </mxCell>
      </root>
    </mxGraphModel>
  </diagram>
</mxfile>
